<svg width="30" height="30" viewBox="0 0 30 30" fill="none" xmlns="http://www.w3.org/2000/svg">
<path fill-rule="evenodd" clip-rule="evenodd" d="M16.1249 1.87499C19.1249 2.06249 21.9374 3.56249 23.9999 5.62499C26.4374 8.24999 27.7499 11.4375 27.7499 15.1875C27.7499 18.1875 26.6249 21 24.7499 23.4375C22.8749 25.6875 20.2499 27.375 17.2499 27.9375C14.2499 28.5 11.2499 28.125 8.62492 26.625C5.99992 25.125 3.93742 22.875 2.81242 20.0625C1.68742 17.25 1.49992 14.0625 2.43742 11.25C3.37492 8.24999 5.06242 5.81249 7.68742 4.12499C10.1249 2.43749 13.1249 1.68749 16.1249 1.87499ZM17.0624 26.0625C19.4999 25.5 21.7499 24.1875 23.4374 22.125C24.9374 20.0625 25.8749 17.625 25.6874 15C25.6874 12 24.5624 8.99999 22.4999 6.93749C20.6249 5.06249 18.3749 3.93749 15.7499 3.74999C13.3124 3.56249 10.6874 4.12499 8.62492 5.62499C6.56242 7.12499 5.06242 9.18749 4.31242 11.8125C3.56242 14.25 3.56242 16.875 4.68742 19.3125C5.81242 21.75 7.49992 23.625 9.74992 24.9375C11.9999 26.25 14.6249 26.625 17.0624 26.0625ZM14.8124 14.0625L19.3124 9.37499L20.6249 10.6875L16.1249 15.375L20.6249 20.0625L19.3124 21.375L14.8124 16.6875L10.3124 21.375L8.99992 20.0625L13.4999 15.375L8.99992 10.6875L10.3124 9.37499L14.8124 14.0625Z" fill="black"/>
</svg>
